<?xml version="1.0" standalone="no"?>
<!DOCTYPE svg PUBLIC "-//W3C//DTD SVG 20010904//EN"
 "http://www.w3.org/TR/2001/REC-SVG-20010904/DTD/svg10.dtd">
<svg version="1.0" xmlns="http://www.w3.org/2000/svg"
 width="285.000000pt" height="243.000000pt" viewBox="0 0 285.000000 243.000000"
 preserveAspectRatio="xMidYMid meet">

<g transform="translate(0.000000,243.000000) scale(0.100000,-0.100000)"
fill="#f8f9fa" stroke="none">
<path d="M1706 2196 c-27 -27 -44 -36 -69 -36 -20 0 -48 -10 -68 -25 -63 -45
-108 -65 -149 -65 -28 0 -39 -4 -34 -11 4 -7 28 -10 64 -7 l57 4 -26 -55 c-19
-41 -26 -73 -26 -118 -1 -54 -4 -66 -27 -90 -60 -63 -62 -121 -8 -254 41 -102
53 -193 30 -229 -7 -11 -10 -3 -10 30 0 54 -28 116 -103 232 -98 150 -136 237
-152 353 l-8 50 -23 -68 c-54 -159 -112 -245 -191 -283 -49 -24 -61 -26 -126
-20 -40 3 -82 9 -94 12 -17 5 -14 -3 19 -37 22 -23 57 -76 76 -117 30 -62 36
-89 40 -156 7 -133 -25 -203 -110 -247 -22 -11 -36 -24 -32 -28 5 -4 32 -26
60 -48 102 -84 136 -206 87 -315 -27 -59 -15 -62 53 -15 64 44 146 142 214
257 30 51 74 114 98 139 l43 46 -48 -75 c-165 -261 -168 -528 -7 -700 56 -60
140 -105 225 -121 56 -10 77 -9 144 6 327 72 601 333 687 654 22 81 31 317 15
375 -8 27 -7 28 18 22 14 -4 25 -4 25 0 0 19 -67 126 -97 155 l-35 34 6 -30
c3 -16 7 -65 8 -108 1 -74 2 -77 19 -61 17 16 19 16 25 0 14 -36 -4 -279 -25
-354 -76 -261 -277 -483 -501 -553 -85 -26 -212 -35 -278 -20 -126 31 -187
105 -186 227 0 62 5 82 37 147 42 85 141 197 249 284 74 59 98 96 123 193 22
85 39 117 75 135 56 29 113 14 143 -37 14 -24 22 -29 40 -23 52 16 135 17 167
2 30 -15 31 -15 42 9 17 37 0 57 -61 71 -32 7 -61 21 -76 37 -13 14 -36 28
-52 31 -65 15 -96 29 -138 61 -53 40 -59 29 -11 -19 l34 -34 -64 -6 c-50 -4
-72 -11 -101 -33 -23 -18 -34 -22 -30 -12 3 9 11 44 18 77 19 100 -11 204 -92
315 -16 22 -27 42 -24 44 2 3 18 -1 34 -8 40 -16 65 -55 57 -90 -6 -33 3 -42
64 -59 27 -8 60 -28 83 -52 32 -31 43 -37 57 -29 38 20 35 50 -9 92 -28 27
-41 49 -41 67 0 15 -6 36 -14 47 -8 11 -20 40 -27 64 -10 36 -14 40 -17 22 -2
-13 2 -30 8 -38 8 -9 9 -14 2 -14 -15 0 -48 57 -63 110 l-13 45 -4 -33 c-2
-19 1 -47 7 -63 5 -16 9 -29 8 -29 -2 0 -20 9 -42 20 -23 12 -59 20 -87 20
-48 0 -48 0 -48 34 0 18 10 48 23 67 20 30 28 34 75 37 l52 3 25 54 c24 50 66
96 97 108 16 6 1 34 -29 54 -19 13 -24 11 -57 -21z m-66 -74 c0 -15 -38 -40
-50 -32 -9 5 -5 12 11 24 26 17 39 20 39 8z m-106 -441 c28 -53 37 -85 42
-142 6 -66 5 -72 -9 -59 -33 32 -97 175 -97 216 0 39 6 54 20 54 4 0 24 -31
44 -69z m246 21 c0 -12 -4 -12 -20 3 -11 10 -20 25 -20 33 0 12 4 12 20 -3 11
-10 20 -25 20 -33z m221 -359 c12 -15 12 -16 -4 -10 -10 4 -25 7 -33 7 -8 0
-14 5 -14 10 0 16 36 11 51 -7z"/>
<path d="M1455 2110 c8 -13 45 -13 65 0 11 7 3 10 -28 10 -26 0 -41 -4 -37
-10z"/>
<path d="M705 1719 c-95 -105 -179 -274 -209 -421 -20 -99 -21 -284 -1 -380
62 -294 265 -543 538 -660 77 -33 197 -68 235 -68 21 0 18 4 -19 32 -23 18
-56 54 -73 80 -24 37 -43 51 -86 69 -213 86 -394 260 -485 465 -71 159 -90
387 -46 554 28 107 84 227 145 308 25 34 44 62 42 62 -2 0 -20 -18 -41 -41z"/>
<path d="M1860 1473 c0 -13 27 -49 33 -43 3 3 -3 16 -14 29 -10 13 -19 19 -19
14z"/>
</g>
</svg>
